<svg xmlns="http://www.w3.org/2000/svg" viewBox="0 0 427 90" role="img" aria-labelledby="title desc">
  <title id="title">Zelvra logo</title>
  <desc id="desc">Zelvra wordmark with geometric mark in blue-cyan gradient.</desc>
  <defs>
    <linearGradient id="zelvraGradient" x1="0" y1="0" x2="1" y2="1">
      <stop offset="0%" stop-color="#0D7CE9"/>
      <stop offset="100%" stop-color="#15CFF1"/>
    </linearGradient>
  </defs>
  <g fill="url(#zelvraGradient)" transform="matrix(6.023025417029097,0,0,6.023025417029097,107.77292922319205,-10.256550707722973)">
    <path d="M1.13 14L7.24 14C7.48 14 7.73 13.82 7.73 13.54L7.73 12.60C7.73 12.32 7.70 12.14 7.52 12.14C7.28 12.14 7.25 12.56 6.65 12.56L2.88 12.56C2.80 12.56 2.73 12.49 2.80 12.39L7.80 5.53C7.90 5.39 7.99 5.14 7.90 4.90L7.73 4.48C7.63 4.24 7.41 4.20 7.18 4.20L0.91 4.20C0.67 4.20 0.42 4.34 0.42 4.56L0.42 5.66C0.41 6.08 0.52 6.09 0.66 6.09C0.95 6.09 0.84 5.64 1.44 5.64L5.46 5.64C5.64 5.64 5.77 5.77 5.66 5.94L0.49 12.73C0.39 12.85 0.31 13.08 0.43 13.30L0.70 13.75C0.77 13.87 0.95 14 1.13 14ZM9.72 14L16.93 14C17.09 14 17.16 13.90 17.16 13.71L17.16 12.61C17.16 12.35 17.16 12.12 16.91 12.12C16.56 12.12 16.81 12.61 16.11 12.61L11.80 12.61C11.54 12.61 11.38 12.60 11.38 12.28L11.38 10.05C11.37 9.83 11.51 9.72 11.77 9.72L14.55 9.72C14.95 9.72 15.01 10.14 15.18 10.14C15.37 10.14 15.47 10.02 15.47 9.63L15.47 8.50C15.47 8.19 15.46 7.97 15.20 7.97C15.01 7.97 15.01 8.34 14.55 8.34L11.69 8.34C11.44 8.34 11.37 8.26 11.37 7.95L11.37 5.87C11.37 5.67 11.47 5.59 11.63 5.59L16.00 5.59C16.77 5.59 16.62 6.05 16.90 6.05C17.16 6.05 17.16 5.73 17.16 5.56L17.16 4.51C17.16 4.24 16.98 4.20 16.81 4.20L10.11 4.20C9.69 4.20 9.21 4.14 9.21 4.38C9.21 4.84 9.77 4.49 9.77 5.40L9.79 12.94C9.79 13.61 9.17 13.45 9.17 13.83C9.17 14.04 9.59 14 9.72 14ZM18.93 14L24.60 14C24.72 14 24.84 13.99 24.95 13.80L25.54 12.87C25.61 12.75 25.65 12.47 25.54 12.40C25.26 12.24 25.16 12.60 24.60 12.60L20.83 12.60C20.66 12.60 20.55 12.57 20.55 12.26L20.55 5.24C20.55 4.61 21.01 4.66 21.01 4.44C21.01 4.23 20.80 4.20 20.50 4.20L18.93 4.20C18.62 4.20 18.45 4.27 18.45 4.44C18.45 4.72 18.96 4.47 18.96 5.31L18.96 12.92C18.96 13.58 18.42 13.41 18.42 13.78C18.42 13.99 18.61 14 18.93 14ZM29.75 14.03L33.15 7.41C33.66 6.51 33.77 5.56 33.71 5.12C33.64 4.52 33.95 4.77 33.95 4.40C33.95 4.24 33.78 4.20 33.56 4.20L31.81 4.20C31.64 4.20 31.47 4.20 31.47 4.42C31.47 4.79 31.95 4.59 32.03 5.24C32.09 5.63 32.09 6.08 31.78 6.68L29.68 10.71C29.60 10.85 29.48 10.88 29.34 10.65L26.46 5.17C26.15 4.59 26.66 4.79 26.66 4.47C26.66 4.20 26.50 4.20 26.17 4.20L24.36 4.20C24.26 4.20 24.07 4.23 24.07 4.45C24.07 4.73 24.40 4.65 24.68 5.18L29.27 14.01C29.37 14.20 29.67 14.20 29.75 14.03ZM35.01 14L36.78 14C37.13 14 37.25 13.93 37.25 13.78C37.25 13.44 36.75 13.54 36.75 12.92L36.75 10.78C36.75 10.25 36.99 10.28 37.11 10.28L39.73 10.28C40.11 10.28 40.21 10.32 40.31 10.56L41.31 12.92C41.57 13.52 41.02 13.40 41.02 13.79C41.02 13.96 41.15 14 41.71 14L43.06 14C43.30 14 43.53 14 43.53 13.78C43.53 13.40 43.08 13.47 42.91 13.06L41.73 10.25C41.66 10.08 41.68 9.97 41.87 9.84C42.41 9.49 43.18 8.51 43.18 7.39C43.18 5.19 41.50 4.20 39.68 4.20L35.43 4.20C34.85 4.20 34.65 4.26 34.65 4.42C34.65 4.77 35.18 4.56 35.18 5.49L35.18 12.89C35.18 13.47 34.66 13.48 34.66 13.79C34.66 14 34.90 14 35.01 14ZM37.24 8.88C36.97 8.88 36.76 8.79 36.76 8.54L36.75 6.10C36.75 5.77 36.92 5.68 37.18 5.68L39.68 5.68C41.02 5.68 41.54 6.38 41.54 7.39C41.54 8.27 40.80 8.88 39.87 8.88ZM44.06 14L45.64 14C46.05 14 46.26 13.97 46.26 13.76C46.26 13.29 45.84 13.62 46.05 12.81L46.17 12.32C46.24 12.17 46.41 12.12 46.55 12.12L49.94 12.12C50.12 12.12 50.23 12.15 50.30 12.35L50.55 13.05C50.72 13.52 50.23 13.36 50.23 13.76C50.23 13.97 50.37 14 50.69 14L52.37 14C52.77 14 52.91 13.97 52.91 13.73C52.91 13.41 52.50 13.51 52.29 12.96L49.29 5.22C49.10 4.73 49.56 4.77 49.56 4.47C49.56 4.27 49.43 4.20 49.21 4.20L47.15 4.20C46.94 4.20 46.82 4.27 46.82 4.47C46.82 4.73 47.18 4.72 47.01 5.22L44.35 12.89C44.14 13.51 43.67 13.38 43.67 13.73C43.67 13.96 43.86 14 44.06 14ZM46.89 10.74C46.72 10.74 46.63 10.65 46.69 10.49L48.05 6.55C48.09 6.43 48.22 6.41 48.27 6.57L49.66 10.43C49.71 10.58 49.69 10.74 49.52 10.74Z"/>
  </g>
  <g transform="matrix(2.8125,0,0,2.8125,0,0)" fill="url(#zelvraGradient)">
    <path d="m29.625 1-3.099 3.172H4.054v23.657h22.472L29.625 31H1V1zM32 0H0v32h32l-5.054-5.172H5.054V5.172h21.893z"/>
    <path d="M21.038 10.962v10.076H10.962V10.962zm1-1H9.962v12.076h12.076z"/>
  </g>
</svg>
